<svg xmlns="http://www.w3.org/2000/svg" font-family="Georgia, 'Times New Roman', serif" viewBox="0 0 900 380"><defs><marker id="dep-arrow" markerHeight="6" markerWidth="6" orient="auto" refX="9" refY="5" viewBox="0 0 10 10"><path fill="#c0392b" d="M0,0 L10,5 L0,10 z"/></marker><style>.box,.tok{fill:#faf6ef;stroke:#1a1a1a;stroke-width:1.5}.tok{fill:#f3ece0;stroke-width:1.2}.label{font-size:14px;font-weight:600;fill:#1a1a1a}.content{font-size:13px;fill:#333;font-family:&apos;Menlo&apos;,monospace}.rel,.tag{font-size:11px;fill:#c0392b}.tag{font-family:&apos;Menlo&apos;,monospace;font-weight:600}.rel{font-style:italic}.dep{stroke:#c0392b;stroke-width:1.5;fill:none}.note,.stage{font-size:11px;fill:#666;font-style:italic}.stage{font-size:12px;fill:#c0392b;text-anchor:middle}</style></defs><rect width="860" height="100" x="20" y="30" class="box" rx="4"/><text x="35" y="55" class="label">POS tags (Universal Dependencies)</text><rect width="80" height="40" x="50" y="75" class="tok" rx="3"/><text x="90" y="98" class="content" text-anchor="middle">The</text><text x="90" y="115" class="tag" text-anchor="middle">DET</text><rect width="80" height="40" x="140" y="75" class="tok" rx="3"/><text x="180" y="98" class="content" text-anchor="middle">cats</text><text x="180" y="115" class="tag" text-anchor="middle">NOUN</text><rect width="80" height="40" x="230" y="75" class="tok" rx="3"/><text x="270" y="98" class="content" text-anchor="middle">were</text><text x="270" y="115" class="tag" text-anchor="middle">AUX</text><rect width="90" height="40" x="320" y="75" class="tok" rx="3"/><text x="365" y="98" class="content" text-anchor="middle">running</text><text x="365" y="115" class="tag" text-anchor="middle">VERB</text><rect width="60" height="40" x="420" y="75" class="tok" rx="3"/><text x="450" y="98" class="content" text-anchor="middle">at</text><text x="450" y="115" class="tag" text-anchor="middle">ADP</text><rect width="80" height="40" x="490" y="75" class="tok" rx="3"/><text x="530" y="98" class="content" text-anchor="middle">3pm</text><text x="530" y="115" class="tag" text-anchor="middle">NOUN</text><rect width="50" height="40" x="580" y="75" class="tok" rx="3"/><text x="605" y="98" class="content" text-anchor="middle">.</text><text x="605" y="115" class="tag" text-anchor="middle">PUNCT</text><rect width="860" height="180" x="20" y="170" class="box" rx="4"/><text x="35" y="195" class="label">Dependency parse</text><rect width="80" height="40" x="50" y="240" class="tok" rx="3"/><text x="90" y="265" class="content" text-anchor="middle">The</text><rect width="80" height="40" x="140" y="240" class="tok" rx="3"/><text x="180" y="265" class="content" text-anchor="middle">cats</text><rect width="80" height="40" x="230" y="240" class="tok" rx="3"/><text x="270" y="265" class="content" text-anchor="middle">were</text><rect width="90" height="40" x="320" y="240" fill="#fff1d6" class="tok" rx="3"/><text x="365" y="265" class="content" text-anchor="middle">running</text><rect width="60" height="40" x="420" y="240" class="tok" rx="3"/><text x="450" y="265" class="content" text-anchor="middle">at</text><rect width="80" height="40" x="490" y="240" class="tok" rx="3"/><text x="530" y="265" class="content" text-anchor="middle">3pm</text><path marker-end="url(#dep-arrow)" d="M 90 240 Q 135 220 180 240" class="dep"/><text x="135" y="215" class="rel" text-anchor="middle">det</text><path marker-end="url(#dep-arrow)" d="M 180 240 Q 270 200 365 240" class="dep"/><text x="275" y="195" class="rel" text-anchor="middle">nsubj</text><path marker-end="url(#dep-arrow)" d="M 270 240 Q 320 210 365 240" class="dep"/><text x="320" y="205" class="rel" text-anchor="middle">aux</text><path marker-end="url(#dep-arrow)" d="M 450 240 Q 405 215 365 240" class="dep"/><text x="405" y="210" class="rel" text-anchor="middle">prep</text><path marker-end="url(#dep-arrow)" d="M 530 240 Q 490 225 450 240" class="dep"/><text x="490" y="220" class="rel" text-anchor="middle">pobj</text><text x="365" y="310" class="note" text-anchor="middle">ROOT = running</text><text x="450" y="370" class="stage" text-anchor="middle">every word has one head. arrows go head → dependent.</text></svg>