<svg xmlns="http://www.w3.org/2000/svg" font-family="Georgia, 'Times New Roman', serif" viewBox="0 0 900 380"><defs><marker id="arrow" markerHeight="6" markerWidth="6" orient="auto" refX="9" refY="5" viewBox="0 0 10 10"><path fill="#1a1a1a" d="M0,0 L10,5 L0,10 z"/></marker><style>.box{fill:#faf6ef;stroke:#1a1a1a;stroke-width:1.5}.label{font-size:15px;font-weight:600;fill:#1a1a1a}.content{font-size:13px;fill:#333;font-family:&apos;Menlo&apos;,&apos;Courier New&apos;,monospace}.stage{font-size:12px;fill:#c0392b;font-style:italic}.line{stroke:#1a1a1a;stroke-width:1.5;fill:none}.dot{fill:#1a1a1a}.vec{stroke:#c0392b;stroke-width:1.5;fill:none}.axis{stroke:#999;stroke-width:1;stroke-dasharray:3,3}</style></defs><rect width="380" height="130" x="20" y="30" class="box" rx="4"/><text x="40" y="55" class="label">Skip-gram window (size 2)</text><text x="40" y="90" class="content">&quot;The cat sat on the mat&quot;</text><text x="40" y="130" class="content">center = cat</text><text x="180" y="130" class="content">context = {The, sat, on}</text><path stroke="#c0392b" stroke-dasharray="2 2" d="M 95 105 L 200 105" class="line"/><rect width="38" height="20" x="77" y="95" fill="none" stroke="#c0392b" stroke-width="1.5" rx="3"/><text x="210" y="180" class="stage">network learns: dot(v_cat, u_sat) high, dot(v_cat, u_random) low</text><rect width="450" height="330" x="430" y="30" class="box" rx="4"/><text x="450" y="55" class="label">Embedding space (2D projection of learned vectors)</text><line x1="460" x2="860" y1="310" y2="310" class="axis"/><line x1="660" x2="660" y1="80" y2="340" class="axis"/><circle cx="540" cy="260" r="4" class="dot"/><text x="510" y="255" class="content">cat</text><circle cx="560" cy="245" r="4" class="dot"/><text x="570" y="240" class="content">dog</text><circle cx="555" cy="275" r="4" class="dot"/><text x="490" y="285" class="content">puppy</text><circle cx="580" cy="255" r="4" class="dot"/><text x="590" y="270" class="content">kitten</text><circle cx="740" cy="130" r="4" class="dot"/><text x="755" y="125" class="content">king</text><circle cx="770" cy="180" r="4" class="dot"/><text x="780" y="175" class="content">man</text><circle cx="705" cy="150" r="4" class="dot"/><text x="645" y="145" class="content">queen</text><circle cx="735" cy="200" r="4" class="dot"/><text x="700" y="220" class="content">woman</text><path marker-end="url(#arrow)" d="M 770 180 L 740 130" class="vec"/><path marker-end="url(#arrow)" d="M 735 200 L 705 150" class="vec"/><text x="700" y="110" class="stage">king - man ≈ queen - woman</text><text x="450" y="350" class="stage">co-occurring words cluster. analogy vectors are directions.</text></svg>