<svg xmlns="http://www.w3.org/2000/svg" font-family="Georgia, 'Times New Roman', serif" viewBox="0 0 960 520"><defs><style>.box{fill:#faf6ef;stroke:#1a1a1a}.box,.cold,.cool,.hot{stroke-width:1.5}.hot{fill:#fff1d6;stroke:#c0392b}.cool{fill:#e6f4ea;stroke:#2e7d32}.cold{fill:#dfe9ff;stroke:#2c5ea9}.small,.step{font-family:&apos;Menlo&apos;,monospace}.step{font-size:12px;fill:#222}.small{font-size:10px;fill:#555}.head,.title{font-weight:700;fill:#1a1a1a}.title{font-size:16px}.head{font-size:12px}</style></defs><text x="480" y="24" class="title" text-anchor="middle">Bias and representational harm: measurement and intervention</text><rect width="880" height="150" x="40" y="60" class="box"/><text x="480" y="85" class="head" text-anchor="middle">Gallegos et al. 2024 three metric categories</text><rect width="280" height="90" x="60" y="105" class="cool"/><text x="200" y="130" class="step" text-anchor="middle">embedding-based</text><text x="200" y="150" class="small" text-anchor="middle">WEAT, SEAT</text><text x="200" y="170" class="small" text-anchor="middle">pre-RLHF; measures representation</text><rect width="280" height="90" x="360" y="105" class="cool"/><text x="500" y="130" class="step" text-anchor="middle">probability-based</text><text x="500" y="150" class="small" text-anchor="middle">stereotype log-likelihood</text><text x="500" y="170" class="small" text-anchor="middle">decoder-side; partial behaviour</text><rect width="240" height="90" x="660" y="105" class="cool"/><text x="780" y="130" class="step" text-anchor="middle">generated-text</text><text x="780" y="150" class="small" text-anchor="middle">resume-scoring, recommendation</text><text x="780" y="170" class="small" text-anchor="middle">ecologically valid; expensive</text><rect width="880" height="130" x="40" y="230" class="box"/><text x="480" y="255" class="head" text-anchor="middle">intersectionality + mechanism</text><rect width="420" height="70" x="60" y="275" class="cold"/><text x="270" y="298" class="step" text-anchor="middle">intersectional evaluation</text><text x="270" y="316" class="small" text-anchor="middle">An et al. 2025 (PNAS Nexus): 5 models, race x gender</text><text x="270" y="334" class="small" text-anchor="middle">WinoIdentity (COLM 2025): uncertainty-based</text><rect width="400" height="70" x="500" y="275" class="cold"/><text x="700" y="298" class="step" text-anchor="middle">mechanistic debiasing</text><text x="700" y="316" class="small" text-anchor="middle">gender neurons (Yu &amp; Ananiadou 2025)</text><text x="700" y="334" class="small" text-anchor="middle">SAE features (Ahsan &amp; Wallace 2025); UniBias heads</text><rect width="880" height="110" x="40" y="380" class="box"/><text x="480" y="405" class="head" text-anchor="middle">harm-type separation</text><rect width="400" height="55" x="60" y="425" class="hot"/><text x="260" y="450" class="step" text-anchor="middle">representational</text><text x="260" y="470" class="small" text-anchor="middle">stereotypes, erasure, demeaning portrayal</text><rect width="420" height="55" x="480" y="425" class="hot"/><text x="690" y="450" class="step" text-anchor="middle">allocational</text><text x="690" y="470" class="small" text-anchor="middle">unequal material outcome (resume score, credit decision)</text></svg>