<svg xmlns="http://www.w3.org/2000/svg" font-family="Georgia, 'Times New Roman', serif" viewBox="0 0 860 380"><defs><marker id="arrow" markerHeight="6" markerWidth="6" orient="auto" refX="9" refY="5" viewBox="0 0 10 10"><path fill="#1a1a1a" d="M0,0 L10,5 L0,10 z"/></marker><style>.box{fill:#faf6ef;stroke:#1a1a1a;stroke-width:1.5}.label{font-size:15px;font-weight:600;fill:#1a1a1a}.content{font-size:13px;fill:#333;font-family:&apos;Menlo&apos;,&apos;Courier New&apos;,monospace}.stage{font-size:12px;fill:#c0392b;font-style:italic;text-anchor:middle}.line{stroke:#1a1a1a;stroke-width:1.5;fill:none}</style></defs><rect width="160" height="120" x="20" y="110" class="box" rx="4"/><text x="100" y="135" class="label" text-anchor="middle">raw text</text><text x="35" y="165" class="content">&quot;The cats</text><text x="35" y="185" class="content">were</text><text x="35" y="205" class="content">running.&quot;</text><path marker-end="url(#arrow)" d="M 180 170 L 230 170" class="line"/><text x="205" y="160" class="stage">tokenize</text><rect width="170" height="120" x="230" y="110" class="box" rx="4"/><text x="315" y="135" class="label" text-anchor="middle">tokens</text><text x="245" y="165" class="content">[The, cats,</text><text x="245" y="185" class="content">were, running,</text><text x="245" y="205" class="content">.]</text><path marker-end="url(#arrow)" d="M 400 170 L 450 170" class="line"/><text x="425" y="160" class="stage">stem</text><rect width="170" height="120" x="450" y="50" class="box" rx="4"/><text x="535" y="75" class="label" text-anchor="middle">stems</text><text x="465" y="105" class="content">[the, cat,</text><text x="465" y="125" class="content">were, run,</text><text x="465" y="145" class="content">.]</text><path marker-end="url(#arrow)" d="M 400 180 Q 420 240 450 250" class="line"/><text x="420" y="275" class="stage">lemmatize</text><rect width="170" height="120" x="450" y="200" class="box" rx="4"/><text x="535" y="225" class="label" text-anchor="middle">lemmas</text><text x="465" y="255" class="content">[the, cat,</text><text x="465" y="275" class="content">be, run,</text><text x="465" y="295" class="content">.]</text><rect width="170" height="160" x="670" y="110" fill="#f3ece0" class="box" rx="4"/><text x="755" y="135" class="label" text-anchor="middle">ready for the</text><text x="755" y="155" class="label" text-anchor="middle">model</text><text x="685" y="185" class="content">vector /</text><text x="685" y="205" class="content">embedding /</text><text x="685" y="225" class="content">feature row /</text><text x="685" y="245" class="content">index lookup</text><path marker-end="url(#arrow)" d="M 620 110 Q 650 140 670 170" class="line"/><path marker-end="url(#arrow)" d="M 620 260 Q 650 220 670 200" class="line"/><text x="430" y="360" class="stage" text-anchor="middle">three operations. each has a job. each has a failure mode.</text></svg>