<svg xmlns="http://www.w3.org/2000/svg" font-family="Georgia, 'Times New Roman', serif" viewBox="0 0 900 520"><defs><marker id="arrow" markerHeight="6" markerWidth="6" orient="auto" refX="9" refY="5" viewBox="0 0 10 10"><path fill="#1a1a1a" d="M0,0 L10,5 L0,10 z"/></marker><style>.box{fill:#faf6ef;stroke:#1a1a1a}.box,.cold,.cool,.hot{stroke-width:1.5}.hot{fill:#fff1d6;stroke:#c0392b}.cool{fill:#e6f4ea;stroke:#2e7d32}.cold{fill:#dfe9ff;stroke:#2c5ea9}.head,.title{font-weight:700;fill:#1a1a1a}.title{font-size:16px}.head{font-size:13px}.small,.step{font-family:&apos;Menlo&apos;,monospace}.step{font-size:12px;fill:#222}.small{font-size:10px;fill:#555}.edge{stroke:#1a1a1a;stroke-width:1.2;fill:none}</style></defs><text x="450" y="28" class="title" text-anchor="middle">Multi-agent debate — Du et al. 2023, convergence dynamics</text><text x="110" y="80" class="head" text-anchor="middle">round 0</text><text x="310" y="80" class="head" text-anchor="middle">round 1</text><text x="510" y="80" class="head" text-anchor="middle">round 2</text><text x="710" y="80" class="head" text-anchor="middle">round 3</text><rect width="100" height="40" x="60" y="100" class="hot"/><text x="110" y="125" class="step" text-anchor="middle">A: 38.0</text><rect width="100" height="40" x="60" y="160" class="cool"/><text x="110" y="185" class="step" text-anchor="middle">B: 42.5</text><rect width="100" height="40" x="60" y="220" class="cold"/><text x="110" y="245" class="step" text-anchor="middle">C: 51.0</text><line x1="160" x2="260" y1="120" y2="120" marker-end="url(#arrow)" class="edge"/><line x1="160" x2="260" y1="180" y2="180" marker-end="url(#arrow)" class="edge"/><line x1="160" x2="260" y1="240" y2="240" marker-end="url(#arrow)" class="edge"/><rect width="100" height="40" x="260" y="100" class="hot"/><text x="310" y="125" class="step" text-anchor="middle">A: 42.89</text><rect width="100" height="40" x="260" y="160" class="cool"/><text x="310" y="185" class="step" text-anchor="middle">B: 44.49</text><rect width="100" height="40" x="260" y="220" class="cold"/><text x="310" y="245" class="step" text-anchor="middle">C: 45.34</text><line x1="360" x2="460" y1="120" y2="120" marker-end="url(#arrow)" class="edge"/><line x1="360" x2="460" y1="180" y2="180" marker-end="url(#arrow)" class="edge"/><line x1="360" x2="460" y1="240" y2="240" marker-end="url(#arrow)" class="edge"/><rect width="100" height="40" x="460" y="100" class="hot"/><text x="510" y="125" class="step" text-anchor="middle">A: 44.15</text><rect width="100" height="40" x="460" y="160" class="cool"/><text x="510" y="185" class="step" text-anchor="middle">B: 44.56</text><rect width="100" height="40" x="460" y="220" class="cold"/><text x="510" y="245" class="step" text-anchor="middle">C: 44.59</text><line x1="560" x2="660" y1="120" y2="120" marker-end="url(#arrow)" class="edge"/><line x1="560" x2="660" y1="180" y2="180" marker-end="url(#arrow)" class="edge"/><line x1="560" x2="660" y1="240" y2="240" marker-end="url(#arrow)" class="edge"/><rect width="100" height="40" x="660" y="100" class="hot"/><text x="710" y="125" class="step" text-anchor="middle">A: 44.43</text><rect width="100" height="40" x="660" y="160" class="cool"/><text x="710" y="185" class="step" text-anchor="middle">B: 44.52</text><rect width="100" height="40" x="660" y="220" class="cold"/><text x="710" y="245" class="step" text-anchor="middle">C: 44.50</text><text x="110" y="300" class="small" text-anchor="middle">spread 13.0</text><text x="310" y="300" class="small" text-anchor="middle">spread 2.45</text><text x="510" y="300" class="small" text-anchor="middle">spread 0.44</text><text x="710" y="300" class="small" text-anchor="middle">spread 0.09</text><rect width="780" height="60" x="60" y="330" class="box"/><text x="450" y="352" class="head" text-anchor="middle">Du et al. ablations</text><text x="450" y="372" class="small" text-anchor="middle">agents-only plateaus · rounds-only barely helps · agents × rounds produces the big jump</text><rect width="780" height="100" x="60" y="400" class="box"/><text x="450" y="422" class="head" text-anchor="middle">failure modes to guard against</text><text x="450" y="442" class="small" text-anchor="middle">sycophancy cascade: agents defer to loudest confidence, may converge on wrong answer</text><text x="450" y="460" class="small" text-anchor="middle">topic drift: long debates wander from original question — re-inject every round</text><text x="450" y="478" class="small" text-anchor="middle">cost: N × R calls with growing context; cap N=5, R=3</text></svg>