<svg xmlns="http://www.w3.org/2000/svg" font-family="Georgia, 'Times New Roman', serif" viewBox="0 0 900 340"><defs><marker id="arrow" markerHeight="6" markerWidth="6" orient="auto" refX="9" refY="5" viewBox="0 0 10 10"><path fill="#1a1a1a" d="M0,0 L10,5 L0,10 z"/></marker><style>.box,.vec{fill:#faf6ef;stroke:#1a1a1a;stroke-width:1.5}.vec{fill:#f3ece0;stroke-width:1.2}.label{font-size:15px;font-weight:600;fill:#1a1a1a}.content{font-size:12px;fill:#333;font-family:&apos;Menlo&apos;,&apos;Courier New&apos;,monospace}.stage{font-size:12px;fill:#c0392b;font-style:italic;text-anchor:middle}.line{stroke:#1a1a1a;stroke-width:1.5;fill:none}.weight{font-size:11px;fill:#666;font-family:&apos;Menlo&apos;,monospace}</style></defs><rect width="180" height="240" x="20" y="40" class="box" rx="4"/><text x="110" y="65" class="label" text-anchor="middle">3 documents</text><text x="35" y="100" class="content">d0: &quot;the cat sat&quot;</text><text x="35" y="140" class="content">d1: &quot;the dog sat&quot;</text><text x="35" y="180" class="content">d2: &quot;the cat ran&quot;</text><text x="35" y="230" class="content">vocab:</text><text x="35" y="250" class="content">the, cat, sat,</text><text x="35" y="270" class="content">dog, ran</text><path marker-end="url(#arrow)" d="M 200 160 L 250 160" class="line"/><text x="225" y="150" class="stage">count</text><rect width="230" height="60" x="250" y="60" class="vec" rx="4"/><text x="365" y="85" class="label" text-anchor="middle">BoW · d0</text><text x="260" y="108" class="content">[1, 1, 1, 0, 0]</text><rect width="230" height="60" x="250" y="135" class="vec" rx="4"/><text x="365" y="160" class="label" text-anchor="middle">BoW · d1</text><text x="260" y="183" class="content">[1, 0, 1, 1, 0]</text><rect width="230" height="60" x="250" y="210" class="vec" rx="4"/><text x="365" y="235" class="label" text-anchor="middle">BoW · d2</text><text x="260" y="258" class="content">[1, 1, 0, 0, 1]</text><path marker-end="url(#arrow)" d="M 480 160 L 530 160" class="line"/><text x="505" y="150" class="stage">* IDF</text><text x="505" y="180" class="weight">down-weight</text><text x="505" y="195" class="weight">&quot;the&quot;</text><rect width="260" height="60" x="530" y="60" class="vec" rx="4"/><text x="660" y="85" class="label" text-anchor="middle">TF-IDF · d0</text><text x="540" y="108" class="content">[0.0, 0.58, 0.58, 0.0, 0.0]</text><rect width="260" height="60" x="530" y="135" class="vec" rx="4"/><text x="660" y="160" class="label" text-anchor="middle">TF-IDF · d1</text><text x="540" y="183" class="content">[0.0, 0.0, 0.58, 0.82, 0.0]</text><rect width="260" height="60" x="530" y="210" class="vec" rx="4"/><text x="660" y="235" class="label" text-anchor="middle">TF-IDF · d2</text><text x="540" y="258" class="content">[0.0, 0.58, 0.0, 0.0, 0.82]</text><text x="450" y="310" class="stage" text-anchor="middle">order discarded. rarity rewarded. sparse, interpretable, fast.</text></svg>