<svg xmlns="http://www.w3.org/2000/svg" width="120" height="120" aria-label="FIG_001.D — MCP server exposing tools, resources, prompts" role="img" viewBox="0 0 120 120"><defs><style>.bp{stroke:#3553ff;fill:none;stroke-linejoin:miter;stroke-linecap:square}.bp-fill{fill:#3553ff}.face{fill:rgba(53,83,255,.08)}.face-strong{fill:rgba(53,83,255,.18)}.mono{font-family:&apos;JetBrains Mono&apos;,ui-monospace,Consolas,monospace}</style></defs><rect width="120" height="120" fill="#fafaf5"/><text x="8" y="14" class="mono bp-fill" font-size="6.5" letter-spacing="1.5">FIG_001.D</text><rect width="50" height="70" x="24" y="30" class="face"/><rect width="50" height="70" x="24" y="30" stroke-width="1.5" class="bp"/><rect width="42" height="14" x="28" y="38" class="face-strong"/><rect width="42" height="14" x="28" y="38" stroke-width="1.2" class="bp"/><circle cx="34" cy="45" r="1.6" class="bp-fill"/><line x1="40" x2="64" y1="45" y2="45" stroke-width="1" class="bp"/><rect width="42" height="14" x="28" y="56" class="face-strong"/><rect width="42" height="14" x="28" y="56" stroke-width="1.2" class="bp"/><circle cx="34" cy="63" r="1.6" class="bp-fill"/><line x1="40" x2="64" y1="63" y2="63" stroke-width="1" class="bp"/><rect width="42" height="14" x="28" y="74" class="face-strong"/><rect width="42" height="14" x="28" y="74" stroke-width="1.2" class="bp"/><circle cx="34" cy="81" r="1.6" class="bp-fill"/><line x1="40" x2="64" y1="81" y2="81" stroke-width="1" class="bp"/><text x="78" y="48" class="mono bp-fill" font-size="5.5" letter-spacing="1">TOOLS</text><text x="78" y="66" class="mono bp-fill" font-size="5.5" letter-spacing="1">RES</text><text x="78" y="84" class="mono bp-fill" font-size="5.5" letter-spacing="1">PROMPTS</text><line x1="49" x2="49" y1="30" y2="20" stroke-width="1.5" class="bp"/><line x1="44" x2="54" y1="20" y2="20" stroke-width="1.5" class="bp"/><text x="60" y="114" class="mono bp-fill" font-size="7" letter-spacing="1.5" text-anchor="middle">MCP</text></svg>