<svg xmlns="http://www.w3.org/2000/svg" width="120" height="120" aria-label="FIG_001.C — agent loop returning to itself" role="img" viewBox="0 0 120 120"><defs><style>.bp{stroke:#3553ff;fill:none;stroke-linejoin:miter;stroke-linecap:square}.bp-fill{fill:#3553ff}.face{fill:rgba(53,83,255,.08)}.face-strong{fill:rgba(53,83,255,.18)}.mono{font-family:&apos;JetBrains Mono&apos;,ui-monospace,Consolas,monospace}</style></defs><rect width="120" height="120" fill="#fafaf5"/><text x="8" y="14" class="mono bp-fill" font-size="6.5" letter-spacing="1.5">FIG_001.C</text><rect width="28" height="20" x="46" y="52" class="face-strong"/><rect width="28" height="20" x="46" y="52" stroke-width="1.5" class="bp"/><text x="60" y="65" class="mono bp-fill" font-size="6.5" letter-spacing="1.5" text-anchor="middle">LLM</text><path stroke-width="1.5" d="M 60 32 A 28 28 0 1 1 32 60" class="bp"/><polyline stroke-width="1.5" points="36 56 32 60 36 64" class="bp"/><rect width="20" height="14" x="84" y="50" class="face"/><rect width="20" height="14" x="84" y="50" stroke-width="1.2" class="bp"/><text x="94" y="60" class="mono bp-fill" font-size="5.5" letter-spacing="1" text-anchor="middle">TOOL</text><line x1="74" x2="84" y1="58" y2="58" stroke-width="1.2" class="bp"/><polyline stroke-width="1.2" points="82 55 84 58 82 61" class="bp"/><line x1="84" x2="74" y1="62" y2="62" stroke-width="1.2" class="bp"/><polyline stroke-width="1.2" points="76 59 74 62 76 65" class="bp"/><rect width="20" height="12" x="50" y="82" class="face"/><rect width="20" height="12" x="50" y="82" stroke-width="1.2" class="bp"/><text x="60" y="90" class="mono bp-fill" font-size="5.5" letter-spacing="1" text-anchor="middle">OBS</text><line x1="60" x2="60" y1="72" y2="82" stroke-width="1.2" class="bp"/><polyline fill="#fafaf5" stroke-width="1.2" points="57 80 60 82 63 80" class="bp"/><text x="60" y="114" class="mono bp-fill" font-size="7" letter-spacing="1.5" text-anchor="middle">AGENT</text></svg>