<svg xmlns="http://www.w3.org/2000/svg" width="120" height="120" aria-label="FIG_001.B — SKILL.md packaged for agents" role="img" viewBox="0 0 120 120"><defs><style>.bp{stroke:#3553ff;fill:none;stroke-linejoin:miter;stroke-linecap:square}.bp-fill{fill:#3553ff}.face{fill:rgba(53,83,255,.08)}.face-strong{fill:rgba(53,83,255,.18)}.mono{font-family:&apos;JetBrains Mono&apos;,ui-monospace,Consolas,monospace}</style></defs><rect width="120" height="120" fill="#fafaf5"/><text x="8" y="14" class="mono bp-fill" font-size="6.5" letter-spacing="1.5">FIG_001.B</text><rect width="62" height="74" x="22" y="26" class="face"/><rect width="62" height="74" x="22" y="26" stroke-width="1.5" class="bp"/><rect width="62" height="14" x="22" y="26" class="face-strong"/><line x1="22" x2="84" y1="40" y2="40" stroke-width="1" class="bp"/><text x="28" y="36" class="mono bp-fill" font-size="6.5" letter-spacing="1.2">SKILL.md</text><line x1="30" x2="74" y1="52" y2="52" stroke-width="1.2" class="bp"/><line x1="30" x2="74" y1="60" y2="60" stroke-width="1.2" class="bp"/><line x1="30" x2="66" y1="68" y2="68" stroke-width="1.2" class="bp"/><line x1="30" x2="74" y1="80" y2="80" stroke-width="1.2" class="bp"/><line x1="30" x2="58" y1="88" y2="88" stroke-width="1.2" class="bp"/><line x1="84" x2="98" y1="84" y2="84" stroke-width="1.5" class="bp"/><rect width="10" height="8" x="98" y="80" class="face-strong"/><rect width="10" height="8" x="98" y="80" stroke-width="1.2" class="bp"/><line x1="100" x2="100" y1="84" y2="84.5" stroke-width="1" class="bp"/><line x1="106" x2="106" y1="84" y2="84.5" stroke-width="1" class="bp"/><text x="60" y="114" class="mono bp-fill" font-size="7" letter-spacing="1.5" text-anchor="middle">SKILL</text></svg>