<svg xmlns="http://www.w3.org/2000/svg" width="1200" height="700" aria-label="FIG_004 — gaussian kernel and how it blurs an image, Hollick-style blueprint" role="img" viewBox="0 0 1200 700"><defs><pattern id="paper" width="16" height="16" x="0" y="0" patternUnits="userSpaceOnUse"><circle cx="0" cy="0" r="1" fill="#1a1a1a" fill-opacity=".06"/></pattern><style>.ink{fill:#1a1a1a}.mute{fill:#7a7a78}.bp{fill:#3553ff}.face{fill:rgba(53,83,255,.06)}.face-strong{fill:rgba(53,83,255,.18)}.stroke{stroke:#3553ff;fill:none;stroke-linejoin:miter;stroke-linecap:square}.mono{font-family:&apos;JetBrains Mono&apos;,ui-monospace,Consolas,monospace}</style></defs><rect width="1200" height="700" fill="#fafaf5"/><rect width="1200" height="700" fill="url(#paper)"/><text x="40" y="44" class="mono bp" font-size="11" letter-spacing="2.4">FIG_004</text><text x="1160" y="44" class="mono mute" font-size="11" letter-spacing="2.4" text-anchor="end">PHASE 01 · LESSON 08</text><line x1="40" x2="1160" y1="64" y2="64" stroke="#3553ff" stroke-opacity=".35" stroke-width=".6"/><g transform="translate(80, 120)"><text x="0" y="-20" class="mono bp" font-size="9" letter-spacing="2">FIG_004.A — CONTINUOUS DISTRIBUTION</text><g stroke-opacity=".45" stroke-width=".6" class="stroke"><line x1="0" x2="320" y1="280" y2="280"/><line x1="0" x2="0" y1="40" y2="280"/><line x1="160" x2="160" y1="280" y2="290"/></g><path stroke-width="2" d="M 0 280 Q 60 280 100 240 Q 160 60 220 240 Q 260 280 320 280" class="stroke"/><path d="M 0 280 Q 60 280 100 240 Q 160 60 220 240 Q 260 280 320 280 Z" class="face"/><line x1="160" x2="160" y1="60" y2="280" stroke-dasharray="3 3" stroke-width=".8" class="stroke"/><text x="166" y="80" class="mono bp" font-size="10" letter-spacing="1.6">μ</text><line x1="100" x2="100" y1="240" y2="280" stroke-opacity=".6" stroke-width=".6" class="stroke"/><line x1="220" x2="220" y1="240" y2="280" stroke-opacity=".6" stroke-width=".6" class="stroke"/><text x="92" y="300" class="mono mute" font-size="9" letter-spacing="1.4">−σ</text><text x="216" y="300" class="mono mute" font-size="9" letter-spacing="1.4">+σ</text><text x="156" y="300" class="mono mute" font-size="9" letter-spacing="1.4">μ</text><text x="0" y="320" class="mono ink" font-size="11">G(x) = (1 / σ√2π) · exp(−x² / 2σ²)</text></g><g><text x="0" y="-20" class="mono bp" font-size="9" letter-spacing="2" transform="translate(480, 120)">FIG_004.B — DISCRETE 5 × 5 KERNEL</text><g stroke-width="1" class="stroke" transform="translate(480, 120)"><rect width="48" height="48" x="0" y="0" class="face"/><rect width="48" height="48" x="48" y="0" class="face"/><rect width="48" height="48" x="96" y="0" class="face"/><rect width="48" height="48" x="144" y="0" class="face"/><rect width="48" height="48" x="192" y="0" class="face"/><rect width="48" height="48" x="0" y="48" class="face"/><rect width="48" height="48" x="48" y="48" class="face"/><rect width="48" height="48" x="96" y="48" class="face-strong"/><rect width="48" height="48" x="144" y="48" class="face"/><rect width="48" height="48" x="192" y="48" class="face"/><rect width="48" height="48" x="0" y="96" class="face"/><rect width="48" height="48" x="48" y="96" class="face-strong"/><rect width="48" height="48" x="96" y="96" class="face-strong"/><rect width="48" height="48" x="144" y="96" class="face-strong"/><rect width="48" height="48" x="192" y="96" class="face"/><rect width="48" height="48" x="0" y="144" class="face"/><rect width="48" height="48" x="48" y="144" class="face"/><rect width="48" height="48" x="96" y="144" class="face-strong"/><rect width="48" height="48" x="144" y="144" class="face"/><rect width="48" height="48" x="192" y="144" class="face"/><rect width="48" height="48" x="0" y="192" class="face"/><rect width="48" height="48" x="48" y="192" class="face"/><rect width="48" height="48" x="96" y="192" class="face"/><rect width="48" height="48" x="144" y="192" class="face"/><rect width="48" height="48" x="192" y="192" class="face"/><rect width="240" height="240" x="0" y="0"/></g><g class="mono bp" font-size="11" letter-spacing="1" text-anchor="middle"><text x="24" y="29" transform="translate(480, 120)">1</text><text x="72" y="29" transform="translate(480, 120)">4</text><text x="120" y="29" transform="translate(480, 120)">7</text><text x="168" y="29" transform="translate(480, 120)">4</text><text x="216" y="29" transform="translate(480, 120)">1</text><text x="24" y="77" transform="translate(480, 120)">4</text><text x="72" y="77" transform="translate(480, 120)">16</text><text x="120" y="77" transform="translate(480, 120)">26</text><text x="168" y="77" transform="translate(480, 120)">16</text><text x="216" y="77" transform="translate(480, 120)">4</text><text x="24" y="125" transform="translate(480, 120)">7</text><text x="72" y="125" transform="translate(480, 120)">26</text><text x="120" y="125" transform="translate(480, 120)">41</text><text x="168" y="125" transform="translate(480, 120)">26</text><text x="216" y="125" transform="translate(480, 120)">7</text><text x="24" y="173" transform="translate(480, 120)">4</text><text x="72" y="173" transform="translate(480, 120)">16</text><text x="120" y="173" transform="translate(480, 120)">26</text><text x="168" y="173" transform="translate(480, 120)">16</text><text x="216" y="173" transform="translate(480, 120)">4</text><text x="24" y="221" transform="translate(480, 120)">1</text><text x="72" y="221" transform="translate(480, 120)">4</text><text x="120" y="221" transform="translate(480, 120)">7</text><text x="168" y="221" transform="translate(480, 120)">4</text><text x="216" y="221" transform="translate(480, 120)">1</text></g><text x="0" y="270" class="mono ink" font-size="11" transform="translate(480, 120)">DIVIDE BY 273 TO NORMALIZE</text><text x="0" y="288" class="mono mute" font-size="10" transform="translate(480, 120)">σ ≈ 1.0 · RADIUS = 2 PX</text></g><g><text x="0" y="-20" class="mono bp" font-size="9" letter-spacing="2" transform="translate(820, 120)">FIG_004.C — APPLIED</text><g transform="translate(820, 120) translate(0, 0)"><rect width="120" height="80" x="0" y="0" stroke-width="1.2" class="stroke"/><rect width="80" height="40" x="20" y="20" class="bp" opacity=".85"/><text x="0" y="100" class="mono mute" font-size="9" letter-spacing="1.4">σ = 0</text></g><g transform="translate(820, 120) translate(140, 0)"><rect width="120" height="80" x="0" y="0" stroke-width="1.2" class="stroke"/><rect width="76" height="36" x="22" y="22" class="bp" opacity=".6"/><rect width="92" height="52" x="14" y="14" class="face-strong"/><text x="0" y="100" class="mono mute" font-size="9" letter-spacing="1.4">σ = 1</text></g><g transform="translate(820, 120) translate(0, 130)"><rect width="120" height="80" x="0" y="0" stroke-width="1.2" class="stroke"/><rect width="64" height="28" x="28" y="26" class="bp" opacity=".4"/><rect width="84" height="44" x="18" y="18" class="face-strong"/><rect width="108" height="68" x="6" y="6" class="face"/><text x="0" y="100" class="mono mute" font-size="9" letter-spacing="1.4">σ = 2</text></g><g transform="translate(820, 120) translate(140, 130)"><rect width="120" height="80" x="0" y="0" stroke-width="1.2" class="stroke"/><rect width="80" height="44" x="20" y="18" class="face-strong"/><rect width="120" height="80" x="0" y="0" class="face"/><text x="0" y="100" class="mono mute" font-size="9" letter-spacing="1.4">σ = 4</text></g></g><line x1="40" x2="1160" y1="640" y2="640" stroke="#3553ff" stroke-opacity=".35" stroke-width=".6"/><text x="1160" y="668" class="mono mute" font-size="10" letter-spacing="2" text-anchor="end">© FIG_004 · GAUSSIAN KERNEL · MIT</text></svg>