<svg xmlns="http://www.w3.org/2000/svg" font-family="Georgia, 'Times New Roman', serif" viewBox="0 0 900 520"><defs><marker id="arrow" markerHeight="6" markerWidth="6" orient="auto" refX="9" refY="5" viewBox="0 0 10 10"><path fill="#1a1a1a" d="M0,0 L10,5 L0,10 z"/></marker><style>.active{stroke-width:1.5}.box{fill:#faf6ef;stroke:#1a1a1a}.box,.hot{stroke-width:1.5}.active,.hot{stroke:#c0392b}.hot{fill:#fff1d6}.active{fill:#ffd78a}.inactive{fill:#e8e2d0;stroke:#999;stroke-width:.8}.shared{fill:#d7e3ee;stroke:#1a1a1a;stroke-width:1.2}.label{font-size:14px;font-weight:600;fill:#1a1a1a}.content{font-size:12px;fill:#333;font-family:&apos;Menlo&apos;,monospace}.caption{font-size:11px;fill:#555;font-style:italic}.title{font-size:16px;font-weight:700;fill:#1a1a1a}</style></defs><text x="450" y="30" class="title" text-anchor="middle">mixture of experts — total params grow, active params stay flat</text><rect width="100" height="30" x="400" y="60" class="hot"/><text x="450" y="80" class="content" text-anchor="middle">token x</text><line x1="450" x2="450" y1="90" y2="115" stroke="#1a1a1a" stroke-width="1.5" marker-end="url(#arrow)"/><rect width="200" height="36" x="350" y="115" class="box"/><text x="450" y="138" class="content" text-anchor="middle">router (top-k of E experts)</text><line x1="450" x2="180" y1="151" y2="200" stroke="#999" stroke-dasharray="2 2" stroke-width=".8"/><line x1="450" x2="275" y1="151" y2="200" stroke="#c0392b" stroke-width="1.8"/><line x1="450" x2="370" y1="151" y2="200" stroke="#999" stroke-dasharray="2 2" stroke-width=".8"/><line x1="450" x2="465" y1="151" y2="200" stroke="#999" stroke-dasharray="2 2" stroke-width=".8"/><line x1="450" x2="560" y1="151" y2="200" stroke="#c0392b" stroke-width="1.8"/><line x1="450" x2="655" y1="151" y2="200" stroke="#999" stroke-dasharray="2 2" stroke-width=".8"/><line x1="450" x2="745" y1="151" y2="200" stroke="#999" stroke-dasharray="2 2" stroke-width=".8"/><line x1="450" x2="835" y1="151" y2="200" stroke="#c0392b" stroke-width="1.8"/><rect width="90" height="60" x="135" y="200" class="inactive"/><text x="180" y="230" class="content" text-anchor="middle">E_1</text><text x="180" y="246" class="caption" text-anchor="middle">skip</text><rect width="90" height="60" x="230" y="200" class="active"/><text x="275" y="230" class="content" text-anchor="middle">E_2</text><text x="275" y="246" class="caption" text-anchor="middle">g=0.52</text><rect width="90" height="60" x="325" y="200" class="inactive"/><text x="370" y="230" class="content" text-anchor="middle">E_3</text><text x="370" y="246" class="caption" text-anchor="middle">skip</text><rect width="90" height="60" x="420" y="200" class="inactive"/><text x="465" y="230" class="content" text-anchor="middle">E_4</text><text x="465" y="246" class="caption" text-anchor="middle">skip</text><rect width="90" height="60" x="515" y="200" class="active"/><text x="560" y="230" class="content" text-anchor="middle">E_5</text><text x="560" y="246" class="caption" text-anchor="middle">g=0.30</text><rect width="90" height="60" x="610" y="200" class="inactive"/><text x="655" y="230" class="content" text-anchor="middle">E_6</text><text x="655" y="246" class="caption" text-anchor="middle">skip</text><rect width="90" height="60" x="700" y="200" class="inactive"/><text x="745" y="230" class="content" text-anchor="middle">E_7</text><text x="745" y="246" class="caption" text-anchor="middle">skip</text><rect width="90" height="60" x="790" y="200" class="active"/><text x="835" y="230" class="content" text-anchor="middle">E_8</text><text x="835" y="246" class="caption" text-anchor="middle">g=0.18</text><line x1="275" x2="450" y1="260" y2="315" stroke="#c0392b" stroke-width="1.2"/><line x1="560" x2="450" y1="260" y2="315" stroke="#c0392b" stroke-width="1.2"/><line x1="835" x2="450" y1="260" y2="315" stroke="#c0392b" stroke-width="1.2"/><rect width="200" height="36" x="350" y="315" class="hot"/><text x="450" y="338" class="content" text-anchor="middle">Σ g_k · E_k(x)</text><rect width="230" height="40" x="450" y="385" class="shared"/><text x="565" y="408" class="content" text-anchor="middle">+ shared expert (always on)</text><line x1="450" x2="450" y1="351" y2="385" stroke="#1a1a1a" stroke-width="1.5"/><path fill="none" stroke="#1a1a1a" stroke-dasharray="3 2" stroke-width="1" d="M 450 405 Q 330 405 330 350"/><rect width="360" height="100" x="60" y="385" class="box"/><text x="240" y="407" class="label" text-anchor="middle">auxiliary-loss-free balance</text><text x="240" y="428" class="caption" text-anchor="middle">each expert has a bias b_e</text><text x="240" y="444" class="caption" text-anchor="middle">selection uses score + bias</text><text x="240" y="460" class="caption" text-anchor="middle">gate weight uses score only</text><text x="240" y="476" class="caption" text-anchor="middle">bias nudged ±γ based on usage — no extra loss</text><text x="450" y="510" class="caption" text-anchor="middle">DeepSeek-V3: 1 shared + 256 routed, top-8. Total 671B, active 37B per token.</text></svg>