<svg xmlns="http://www.w3.org/2000/svg" font-family="Georgia, 'Times New Roman', serif" viewBox="0 0 960 560"><defs><style>.box{fill:#faf6ef;stroke:#1a1a1a;stroke-width:1.5}.hot{fill:#fff1d6;stroke:#c0392b}.cold,.hot{stroke-width:1.5}.cool{fill:#e6f4ea;stroke:#2e7d32}.cool,.dsk{stroke-width:1.5}.cold{fill:#dfe9ff;stroke:#2c5ea9}.dsk{fill:#e9e6ff;stroke:#5a4fcf}.small,.step{font-family:&apos;Menlo&apos;,monospace}.step{font-size:12px;fill:#222}.caption,.small{font-size:10px;fill:#555}.caption{font-size:11px;font-style:italic}.head,.title{font-weight:700;fill:#1a1a1a}.title{font-size:16px}.head{font-size:12px}</style></defs><text x="480" y="24" class="title" text-anchor="middle">regulated-domain RAG — ingestion, guard, cache, observe</text><rect width="280" height="460" x="40" y="50" class="box"/><text x="180" y="72" class="head" text-anchor="middle">ingestion</text><rect width="240" height="34" x="60" y="90" class="cool"/><text x="180" y="110" class="step" text-anchor="middle">docling / Unstructured</text><rect width="240" height="34" x="60" y="130" class="cool"/><text x="180" y="150" class="step" text-anchor="middle">ColPali for visual docs</text><rect width="240" height="34" x="60" y="170" class="dsk"/><text x="180" y="190" class="step" text-anchor="middle">role + jurisdiction tags</text><rect width="240" height="34" x="60" y="210" class="dsk"/><text x="180" y="230" class="step" text-anchor="middle">summaries + labels</text><rect width="240" height="60" x="60" y="260" class="cold"/><text x="180" y="280" class="step" text-anchor="middle">pgvector + pgvectorscale</text><text x="180" y="298" class="small" text-anchor="middle">Tantivy BM25 side-index</text><text x="180" y="314" class="small" text-anchor="middle">payload: role, jurisdiction</text><rect width="240" height="160" x="60" y="336" class="box"/><text x="180" y="358" class="head" text-anchor="middle">eval</text><text x="180" y="378" class="small" text-anchor="middle">200-Q golden set</text><text x="180" y="394" class="small" text-anchor="middle">RAGAS faithfulness</text><text x="180" y="410" class="small" text-anchor="middle">citation correctness</text><text x="180" y="428" class="small" text-anchor="middle">Phoenix weekly drift</text><text x="180" y="444" class="small" text-anchor="middle">red-team suite</text><text x="180" y="460" class="small" text-anchor="middle">(PAIR + PII + off-domain)</text><text x="180" y="484" class="caption" text-anchor="middle">alert: nDCG drop &gt; 5%</text><rect width="300" height="460" x="340" y="50" class="box"/><text x="490" y="72" class="head" text-anchor="middle">conversation (LangGraph)</text><rect width="260" height="36" x="360" y="90" class="cool"/><text x="490" y="112" class="step" text-anchor="middle">filter role + jurisdiction</text><rect width="260" height="36" x="360" y="134" class="cool"/><text x="490" y="156" class="step" text-anchor="middle">hybrid retrieve + RRF</text><rect width="260" height="36" x="360" y="178" class="cool"/><text x="490" y="200" class="step" text-anchor="middle">rerank bge-v2-gemma-2b</text><rect width="260" height="36" x="360" y="222" class="dsk"/><text x="490" y="244" class="step" text-anchor="middle">assemble cache-stable prompt</text><rect width="260" height="36" x="360" y="266" class="dsk"/><text x="490" y="288" class="step" text-anchor="middle">Claude Sonnet 4.7 synth</text><rect width="260" height="36" x="360" y="310" class="hot"/><text x="490" y="332" class="step" text-anchor="middle">Llama Guard 4 output</text><rect width="260" height="36" x="360" y="354" class="hot"/><text x="490" y="376" class="step" text-anchor="middle">Presidio PII scrub</text><rect width="260" height="36" x="360" y="398" class="cool"/><text x="490" y="420" class="step" text-anchor="middle">citation enforcement</text><text x="490" y="460" class="small" text-anchor="middle">prompt-caching target: 60-80%</text><text x="490" y="478" class="small" text-anchor="middle">cache key = system+policy+context</text><text x="490" y="496" class="caption" text-anchor="middle">Claude 4.5+ prompt-cache API</text><rect width="260" height="460" x="660" y="50" class="box"/><text x="790" y="72" class="head" text-anchor="middle">guardrails + observe</text><rect width="220" height="40" x="680" y="90" class="hot"/><text x="790" y="108" class="step" text-anchor="middle">Llama Guard 4 input</text><text x="790" y="124" class="small" text-anchor="middle">jailbreak + PII probes</text><rect width="220" height="40" x="680" y="138" class="hot"/><text x="790" y="156" class="step" text-anchor="middle">NeMo Guardrails v0.12</text><text x="790" y="172" class="small" text-anchor="middle">off-domain rails</text><rect width="220" height="40" x="680" y="186" class="dsk"/><text x="790" y="204" class="step" text-anchor="middle">Langfuse self-hosted</text><text x="790" y="220" class="small" text-anchor="middle">annotation queue</text><rect width="220" height="40" x="680" y="234" class="cold"/><text x="790" y="252" class="step" text-anchor="middle">Arize Phoenix drift</text><text x="790" y="268" class="small" text-anchor="middle">weekly retrieval quality</text><rect width="220" height="220" x="680" y="286" class="box"/><text x="790" y="308" class="head" text-anchor="middle">cost report</text><text x="790" y="330" class="small" text-anchor="middle">prompt-cache hit rate</text><text x="790" y="346" class="small" text-anchor="middle">tokens / query breakdown</text><text x="790" y="362" class="small" text-anchor="middle">$ / query by stage</text><text x="790" y="380" class="small" text-anchor="middle">rerank / synth / guard</text><text x="790" y="404" class="small" text-anchor="middle">hit rate target: 60-80%</text><text x="790" y="420" class="small" text-anchor="middle">3-5x cost reduction</text><text x="790" y="442" class="small" text-anchor="middle">when prefix is stable</text><text x="790" y="478" class="caption" text-anchor="middle">Harvey / Glean / Mendable 2026 shape</text></svg>