<svg xmlns="http://www.w3.org/2000/svg" font-family="Georgia, 'Times New Roman', serif" viewBox="0 0 960 520"><defs><marker id="arrow" markerHeight="6" markerWidth="6" orient="auto" refX="9" refY="5" viewBox="0 0 10 10"><path fill="#1a1a1a" d="M0,0 L10,5 L0,10 z"/></marker><style>.box{fill:#faf6ef;stroke:#1a1a1a;stroke-width:1.5}.hot{fill:#fff1d6;stroke:#c0392b}.cold,.hot{stroke-width:1.5}.cool{fill:#e6f4ea;stroke:#2e7d32}.cool,.reg{stroke-width:1.5}.cold{fill:#dfe9ff;stroke:#2c5ea9}.reg{fill:#e9e6ff;stroke:#5a4fcf}.small,.step{font-family:&apos;Menlo&apos;,monospace}.step{font-size:12px;fill:#222}.caption,.small{font-size:10px;fill:#555}.caption{font-size:11px;font-style:italic}.head,.title{font-weight:700;fill:#1a1a1a}.title{font-size:16px}.head{font-size:12px}</style></defs><text x="480" y="24" class="title" text-anchor="middle">Multimodal RAG — cross-modal retrieve, fuse, ground, generate</text><rect width="900" height="220" x="30" y="50" class="box"/><text x="480" y="72" class="head" text-anchor="middle">query -&gt; decompose -&gt; 3 retrievers -&gt; fuse -&gt; VLM generator</text><rect width="180" height="60" x="60" y="90" class="reg"/><text x="150" y="112" class="step" text-anchor="middle">query</text><text x="150" y="130" class="small" text-anchor="middle">&quot;quiet vegan brunch</text><text x="150" y="145" class="small" text-anchor="middle">with natural light&quot;</text><path stroke="#1a1a1a" stroke-width="1.5" marker-end="url(#arrow)" d="M 245 120 L 285 100"/><path stroke="#1a1a1a" stroke-width="1.5" marker-end="url(#arrow)" d="M 245 120 L 285 170"/><path stroke="#1a1a1a" stroke-width="1.5" marker-end="url(#arrow)" d="M 245 140 L 285 240"/><rect width="170" height="50" x="290" y="80" class="hot"/><text x="375" y="100" class="step" text-anchor="middle">text retriever</text><text x="375" y="120" class="small" text-anchor="middle">reviews / menus</text><rect width="170" height="50" x="290" y="150" class="cool"/><text x="375" y="170" class="step" text-anchor="middle">image retriever</text><text x="375" y="190" class="small" text-anchor="middle">CLIP / SigLIP photos</text><rect width="170" height="50" x="290" y="220" class="cold"/><text x="375" y="240" class="step" text-anchor="middle">audio retriever</text><text x="375" y="260" class="small" text-anchor="middle">CLAP ambient clips</text><path stroke="#1a1a1a" stroke-width="1.5" marker-end="url(#arrow)" d="M 465 105 L 505 150"/><path stroke="#1a1a1a" stroke-width="1.5" marker-end="url(#arrow)" d="M 465 175 L 505 170"/><path stroke="#1a1a1a" stroke-width="1.5" marker-end="url(#arrow)" d="M 465 245 L 505 200"/><rect width="170" height="90" x="510" y="130" class="reg"/><text x="595" y="152" class="step" text-anchor="middle">score fusion</text><text x="595" y="172" class="small" text-anchor="middle">weighted sum</text><text x="595" y="188" class="small" text-anchor="middle">or MoE gate</text><text x="595" y="206" class="small" text-anchor="middle">top-k candidates</text><path stroke="#1a1a1a" stroke-width="1.5" marker-end="url(#arrow)" d="M 685 175 L 725 175"/><rect width="180" height="90" x="730" y="130" class="cool"/><text x="820" y="152" class="step" text-anchor="middle">VLM generator</text><text x="820" y="172" class="small" text-anchor="middle">Qwen2.5-VL / Claude</text><text x="820" y="188" class="small" text-anchor="middle">grounded citations</text><text x="820" y="206" class="small" text-anchor="middle">per source</text><rect width="900" height="220" x="30" y="290" class="box"/><text x="480" y="312" class="head" text-anchor="middle">the three surveys of 2025</text><rect width="260" height="170" x="60" y="330" class="hot"/><text x="190" y="352" class="step" text-anchor="middle">Abootorabi et al.</text><text x="190" y="368" class="small" text-anchor="middle">arXiv:2502.08826</text><text x="190" y="388" class="small" text-anchor="middle">comprehensive taxonomy</text><text x="190" y="404" class="small" text-anchor="middle">retrieval / fusion / generation</text><text x="190" y="420" class="small" text-anchor="middle">broadest coverage</text><text x="190" y="446" class="step" text-anchor="middle">start here if new</text><text x="190" y="466" class="caption" text-anchor="middle">names all subproblems</text><rect width="260" height="170" x="340" y="330" class="cool"/><text x="470" y="352" class="step" text-anchor="middle">Mei et al.</text><text x="470" y="368" class="small" text-anchor="middle">arXiv:2504.08748</text><text x="470" y="388" class="small" text-anchor="middle">sub-task benchmarks</text><text x="470" y="404" class="small" text-anchor="middle">failure modes cataloged</text><text x="470" y="420" class="small" text-anchor="middle">useful for eval design</text><text x="470" y="446" class="step" text-anchor="middle">read for evals</text><text x="470" y="466" class="caption" text-anchor="middle">per-metric decomposition</text><rect width="290" height="170" x="620" y="330" class="cold"/><text x="765" y="352" class="step" text-anchor="middle">Zhao et al.</text><text x="765" y="368" class="small" text-anchor="middle">arXiv:2503.18016</text><text x="765" y="388" class="small" text-anchor="middle">vision-focused RAG</text><text x="765" y="404" class="small" text-anchor="middle">strong on ColPali-family</text><text x="765" y="420" class="small" text-anchor="middle">visual-only emphasis</text><text x="765" y="446" class="step" text-anchor="middle">read for vision RAG</text><text x="765" y="466" class="caption" text-anchor="middle">complements lesson 23</text></svg>