<svg xmlns="http://www.w3.org/2000/svg" font-family="Georgia, 'Times New Roman', serif" viewBox="0 0 880 520"><defs><marker id="arrow" markerHeight="6" markerWidth="6" orient="auto" refX="9" refY="5" viewBox="0 0 10 10"><path fill="#1a1a1a" d="M0,0 L10,5 L0,10 z"/></marker><style>.box{fill:#faf6ef;stroke:#1a1a1a}.box,.cold,.cool,.hot{stroke-width:1.5}.hot{fill:#fff1d6;stroke:#c0392b}.cool{fill:#e6f4ea;stroke:#2e7d32}.cold{fill:#dfe9ff;stroke:#2c5ea9}.label{font-size:13px;font-weight:600;fill:#1a1a1a}.content,.small{font-size:11px;font-family:&apos;Menlo&apos;,monospace;fill:#333}.small{font-size:10px;fill:#555}.caption{font-size:11px;fill:#555;font-style:italic}.title{font-size:16px;font-weight:700;fill:#1a1a1a}</style></defs><text x="440" y="26" class="title" text-anchor="middle">AlphaEvolve — generator, evaluator, archive</text><rect width="800" height="420" x="40" y="50" class="box"/><rect width="220" height="120" x="80" y="100" class="cool"/><text x="190" y="124" class="label" text-anchor="middle">LLM generator</text><text x="190" y="146" class="content" text-anchor="middle">Gemini Flash (many)</text><text x="190" y="162" class="content" text-anchor="middle">Gemini Pro (hard cases)</text><text x="190" y="184" class="small" text-anchor="middle">prompt = parent(s) +</text><text x="190" y="200" class="small" text-anchor="middle">top variants + task + eval sig</text><rect width="220" height="260" x="330" y="100" class="cold"/><text x="440" y="124" class="label" text-anchor="middle">program archive</text><text x="440" y="142" class="small" text-anchor="middle">MAP-elites grid / islands</text><g fill="#fff" stroke="#2c5ea9" stroke-width="1"><rect width="60" height="44" x="345" y="158"/><rect width="60" height="44" x="405" y="158"/><rect width="60" height="44" x="465" y="158"/><rect width="60" height="44" x="345" y="202"/><rect width="60" height="44" x="405" y="202"/><rect width="60" height="44" x="465" y="202"/><rect width="60" height="44" x="345" y="246"/><rect width="60" height="44" x="405" y="246"/><rect width="60" height="44" x="465" y="246"/></g><g class="small"><text x="375" y="182" text-anchor="middle">92.1</text><text x="435" y="182" text-anchor="middle">89.3</text><text x="495" y="182" text-anchor="middle">94.0</text><text x="375" y="226" text-anchor="middle">85.8</text><text x="435" y="226" text-anchor="middle">91.7</text><text x="495" y="226" text-anchor="middle">88.4</text><text x="375" y="270" text-anchor="middle">78.6</text><text x="435" y="270" text-anchor="middle">82.2</text><text x="495" y="270" text-anchor="middle">87.0</text></g><text x="440" y="312" class="small" text-anchor="middle">cell key = feature descriptor</text><text x="440" y="326" class="small" text-anchor="middle">(depth, complexity, footprint, ...)</text><text x="440" y="342" class="small" text-anchor="middle">each cell keeps its best</text><rect width="220" height="120" x="580" y="100" class="hot"/><text x="690" y="124" class="label" text-anchor="middle">evaluator</text><text x="690" y="146" class="content" text-anchor="middle">correctness + benchmark</text><text x="690" y="164" class="content" text-anchor="middle">deterministic, fast</text><text x="690" y="186" class="small" text-anchor="middle">held-out inputs generated</text><text x="690" y="202" class="small" text-anchor="middle">at evaluation time</text><path stroke="#1a1a1a" stroke-width="1.5" marker-end="url(#arrow)" d="M300 160 L330 160"/><text x="305" y="152" class="small">variants</text><path stroke="#1a1a1a" stroke-width="1.5" marker-end="url(#arrow)" d="M550 180 L580 180"/><text x="555" y="172" class="small">variant</text><path fill="none" stroke="#1a1a1a" stroke-width="1.5" marker-end="url(#arrow)" d="M690 220 Q 690 280 550 280"/><text x="620" y="248" class="small">score</text><path fill="none" stroke="#1a1a1a" stroke-width="1.5" marker-end="url(#arrow)" d="M345 160 Q 220 100 190 100"/><text x="260" y="82" class="small">parent sample</text><rect width="720" height="84" x="80" y="370" class="box"/><text x="100" y="392" class="label">documented wins (DeepMind, June 2025)</text><text x="100" y="412" class="content">- 48-mul 4x4 complex matmul (Strassen 1969 bound 49)</text><text x="100" y="428" class="content">- Google Borg scheduling heuristic, ~0.7% compute recovered in prod</text><text x="100" y="444" class="content">- 32.5% FlashAttention kernel speedup · Gemini training throughput gains</text><text x="440" y="496" class="caption" text-anchor="middle">reward hacking is bounded only by evaluator rigor. pick domains where the evaluator is not the weak link.</text></svg>